<mxfile host="app.diagrams.net" modified="2023-11-07T07:20:00.513Z" agent="Mozilla/5.0 (Windows NT 10.0; Win64; x64) AppleWebKit/537.36 (KHTML, like Gecko) Chrome/118.0.0.0 Safari/537.36" etag="51hcsHe1tAjdVb7TMty2" version="22.0.8" type="github">
  <diagram id="prtHgNgQTEPvFCAcTncT" name="Page-1">
    <mxGraphModel dx="1434" dy="750" grid="0" gridSize="10" guides="1" tooltips="1" connect="1" arrows="1" fold="1" page="1" pageScale="1" pageWidth="827" pageHeight="1169" math="0" shadow="0">
      <root>
        <mxCell id="0" />
        <mxCell id="1" parent="0" />
        <mxCell id="-jJhjU_FKEdSBkQWSmdF-1" value="&lt;font style=&quot;font-size: 24px;&quot;&gt;日志拦截&lt;/font&gt;" style="rounded=0;whiteSpace=wrap;html=1;" parent="1" vertex="1">
          <mxGeometry x="240" y="120" width="240" height="60" as="geometry" />
        </mxCell>
        <mxCell id="-jJhjU_FKEdSBkQWSmdF-2" value="&lt;font style=&quot;font-size: 24px;&quot;&gt;日志解析&lt;/font&gt;" style="rounded=0;whiteSpace=wrap;html=1;" parent="1" vertex="1">
          <mxGeometry x="240" y="180" width="120" height="60" as="geometry" />
        </mxCell>
        <mxCell id="-jJhjU_FKEdSBkQWSmdF-3" value="&lt;font style=&quot;font-size: 24px;&quot;&gt;业务逻辑&lt;/font&gt;" style="text;html=1;align=center;verticalAlign=middle;resizable=0;points=[];autosize=1;strokeColor=none;fillColor=none;" parent="1" vertex="1">
          <mxGeometry x="300" y="68" width="120" height="40" as="geometry" />
        </mxCell>
        <mxCell id="-jJhjU_FKEdSBkQWSmdF-4" value="&lt;font style=&quot;font-size: 24px;&quot;&gt;日志保存&lt;/font&gt;" style="rounded=0;whiteSpace=wrap;html=1;" parent="1" vertex="1">
          <mxGeometry x="360" y="180" width="120" height="60" as="geometry" />
        </mxCell>
        <mxCell id="-jJhjU_FKEdSBkQWSmdF-5" value="" style="rounded=0;whiteSpace=wrap;html=1;" parent="1" vertex="1">
          <mxGeometry x="240" y="240" width="240" height="174" as="geometry" />
        </mxCell>
      </root>
    </mxGraphModel>
  </diagram>
</mxfile>
